<?xml version="1.0" standalone="no"?>
<!DOCTYPE svg PUBLIC "-//W3C//DTD SVG 20010904//EN"
 "http://www.w3.org/TR/2001/REC-SVG-20010904/DTD/svg10.dtd">
<svg version="1.0" xmlns="http://www.w3.org/2000/svg"
 width="332.000000pt" height="147.000000pt" viewBox="0 0 332.000000 147.000000"
 preserveAspectRatio="xMidYMid meet">

<g transform="translate(0.000000,147.000000) scale(0.100000,-0.100000)"
fill="#000000" stroke="none">
<path d="M0 735 l0 -735 1660 0 1660 0 0 735 0 735 -1660 0 -1660 0 0 -735z
m1030 102 c0 -24 -18 -62 -64 -133 l-64 -99 64 -3 c64 -3 64 -3 64 -33 l0 -30
-107 3 -108 3 1 30 c1 19 26 68 66 130 l65 100 -61 5 c-58 5 -61 6 -64 33 l-3
27 105 0 106 0 0 -33z m150 -132 l0 -165 -35 0 -35 0 0 165 0 165 35 0 35 0 0
-165z m278 145 c14 -14 22 -33 22 -55 0 -33 -2 -35 -35 -35 -31 0 -35 3 -35
25 0 23 -4 25 -40 25 l-40 0 0 -105 0 -105 40 0 c38 0 40 2 40 30 0 23 -4 30
-20 30 -16 0 -20 7 -20 30 0 30 1 30 55 30 l55 0 0 -70 c0 -92 -17 -110 -107
-110 -54 0 -68 4 -88 25 -24 23 -25 30 -25 140 0 110 1 117 25 140 20 21 34
25 88 25 50 0 68 -4 85 -20z"/>
</g>
</svg>
